<?xml version="1.0" standalone="no"?>
<!DOCTYPE svg PUBLIC "-//W3C//DTD SVG 20010904//EN"
 "http://www.w3.org/TR/2001/REC-SVG-20010904/DTD/svg10.dtd">
<svg version="1.0" xmlns="http://www.w3.org/2000/svg"
 width="700.000000pt" height="990.000000pt" viewBox="0 0 700.000000 990.000000"
 preserveAspectRatio="xMidYMid meet">
<metadata>
Created by potrace 1.16, written by Peter Selinger 2001-2019
</metadata>
<g transform="translate(0.000000,990.000000) scale(0.100000,-0.100000)"
fill="#000000" stroke="none">
<path d="M4953 9769 c9 -5 17 -18 18 -27 0 -11 2 -12 6 -4 6 15 -14 42 -31 42
-6 0 -3 -5 7 -11z"/>
<path d="M5002 9761 c-7 -4 -10 -15 -7 -23 8 -19 -49 -78 -123 -128 -40 -27
-56 -46 -69 -80 -9 -25 -25 -56 -35 -69 -10 -13 -18 -29 -18 -35 0 -20 -74
-85 -100 -88 -19 -2 -28 4 -41 32 -28 57 -43 154 -30 191 6 18 9 35 6 37 -10
10 -17 -7 -22 -50 -3 -24 -12 -58 -20 -77 -13 -28 -15 -59 -10 -153 5 -116 5
-119 -18 -131 -60 -32 -194 -135 -209 -160 -9 -16 -16 -47 -16 -70 l-1 -42
-15 28 c-8 15 -12 33 -8 39 4 6 3 8 -3 5 -5 -4 -16 6 -24 21 -8 15 -16 29 -19
32 -3 3 -20 28 -37 55 -18 28 -51 68 -74 90 -40 38 -45 33 -10 -10 l16 -20
-25 20 c-14 11 -27 22 -30 25 -27 27 -38 30 -44 13 -4 -10 -4 -14 0 -10 15 15
196 -197 238 -280 14 -28 14 -36 2 -71 -8 -22 -12 -50 -9 -61 3 -11 2 -29 -2
-38 -17 -40 4 -142 45 -224 32 -62 82 -121 139 -163 47 -35 50 -39 70 -124 28
-111 42 -218 48 -356 5 -122 10 -118 -72 -53 -42 33 -40 29 18 -26 64 -62 88
-106 50 -93 -16 5 -16 4 0 -8 16 -13 19 -32 22 -138 2 -68 4 -154 5 -193 4
-134 18 -26 19 143 l1 162 38 -16 c64 -28 80 -27 22 1 -48 23 -74 44 -66 52 1
2 28 -11 60 -28 79 -43 81 -30 2 19 l-64 40 -6 108 c-7 117 -25 252 -52 376
-24 112 -15 123 46 57 27 -30 56 -70 65 -89 31 -65 110 -109 208 -113 36 -2
42 -5 39 -22 -1 -11 -3 -112 -5 -224 l-2 -204 -40 -15 c-36 -13 -83 -57 -73
-67 2 -2 24 9 48 25 56 37 68 37 73 3 l4 -28 2 28 c0 16 5 27 10 25 70 -26
112 -59 158 -123 73 -101 97 -174 91 -275 -4 -72 -10 -91 -62 -197 -31 -65
-68 -134 -80 -153 -95 -145 -121 -190 -133 -230 -16 -52 -12 -90 4 -50 6 14
21 45 32 70 l21 45 -6 -40 c-3 -21 -24 -82 -46 -135 -21 -52 -48 -131 -59
-175 -21 -88 -26 -249 -8 -261 8 -4 9 12 4 58 -13 124 30 296 120 473 25 50
37 79 26 65 -24 -29 -27 -16 -10 43 10 36 77 159 90 165 4 2 26 41 49 88 23
47 45 83 47 80 5 -4 -24 -129 -44 -195 -3 -12 -2 -12 6 1 18 27 52 178 46 199
-4 10 -2 19 3 19 36 0 46 357 18 575 -9 65 -14 120 -12 123 3 2 19 -6 36 -18
38 -27 110 -50 157 -50 28 0 33 -3 30 -17 -3 -10 -11 -43 -17 -73 -7 -30 -23
-93 -36 -140 -13 -47 -30 -120 -38 -163 -18 -94 -69 -245 -129 -384 -40 -92
-62 -133 -113 -213 -12 -19 -10 -18 10 5 15 17 47 64 72 105 l46 75 -6 -130
c-3 -71 -15 -186 -26 -255 -27 -161 -34 -216 -26 -209 14 13 81 444 90 579 8
107 19 146 46 153 21 5 70 97 93 172 13 45 13 53 0 70 -16 22 -15 26 20 145
14 47 32 119 42 160 32 148 25 135 78 138 l47 3 0 -108 c0 -59 -3 -145 -7
-191 l-6 -82 -32 6 c-53 10 -54 1 -43 -216 14 -254 14 -274 5 -345 l-7 -60 26
79 c14 44 32 85 40 93 13 14 22 49 26 113 3 31 6 35 36 36 36 2 36 1 21 -27
-21 -40 33 1 128 96 51 51 94 90 97 87 11 -11 6 -53 -10 -85 -9 -18 -37 -60
-61 -95 -25 -35 -43 -65 -40 -68 2 -2 25 21 51 53 26 32 62 69 79 83 18 13 26
17 20 9 -7 -9 -10 -19 -6 -23 4 -4 1 -11 -7 -16 -8 -6 -10 -10 -4 -10 14 0 84
63 84 75 0 4 12 27 27 50 21 33 32 42 56 43 18 0 41 12 57 27 15 15 30 22 34
17 9 -14 65 -20 75 -8 4 6 13 26 19 44 10 28 9 35 -8 50 -40 37 -50 43 -50 32
0 -6 -5 -8 -12 -4 -6 4 -21 -5 -35 -22 l-23 -29 0 31 c0 16 5 35 11 41 8 8 3
15 -19 27 -16 8 -33 12 -37 8 -10 -9 4 35 21 69 21 42 89 226 127 344 44 139
64 233 77 364 12 126 13 161 1 161 -4 0 -11 -39 -15 -87 -11 -152 -70 -424
-90 -417 -6 2 -42 -60 -79 -139 -69 -143 -171 -312 -194 -321 -8 -4 -13 3 -13
19 0 44 -54 73 -80 43 -42 -51 -220 -360 -221 -385 -1 -22 -9 -11 -15 22 -9
52 1 150 25 216 10 32 24 92 31 135 6 44 18 119 27 167 15 86 17 89 62 123 60
46 116 114 146 179 41 86 95 334 95 436 0 55 4 57 122 61 66 3 68 4 68 29 0
14 -7 34 -15 45 -8 10 -15 29 -15 42 0 28 -54 190 -86 258 -30 64 -123 204
-175 262 -35 40 -39 51 -41 101 -1 69 0 63 -22 136 -19 65 -50 107 -72 98 -7
-3 -24 7 -38 22 -15 16 -30 24 -37 19 -7 -4 -9 -3 -5 4 3 6 -7 17 -24 26 -17
8 -28 10 -25 5 14 -22 -36 -68 -93 -84 -81 -24 -132 -16 -181 28 -22 19 -37
38 -34 41 3 2 -4 2 -15 -1 -12 -3 -23 -10 -25 -17 -2 -6 -3 -3 -2 6 2 9 -6 58
-16 109 -14 69 -25 101 -47 128 -43 53 -113 89 -140 72z m97 -775 c-5 -17 -9
-32 -9 -34 0 -2 -10 -2 -22 0 -13 2 -22 9 -20 17 4 18 -18 42 -31 34 -6 -3 -7
-1 -3 5 4 7 17 12 29 12 12 0 29 4 37 10 21 13 30 -7 19 -44z m-595 -318 c86
-36 103 -53 108 -113 l3 -40 -49 3 c-38 2 -54 8 -75 30 -14 16 -42 40 -61 54
-30 22 -89 101 -63 85 5 -3 15 -2 23 4 22 13 28 12 114 -23z m1551 -124 c7
-27 16 -56 20 -65 5 -15 -3 -17 -70 -18 -82 -1 -255 33 -255 50 0 6 5 7 12 3
8 -5 9 -2 5 9 -3 9 0 23 8 31 11 11 12 16 2 19 -6 2 1 2 17 -1 22 -3 27 -1 21
9 -4 8 2 4 12 -8 20 -24 51 -32 71 -19 8 4 23 1 39 -9 20 -13 27 -14 33 -5 6
9 20 0 49 -31 45 -49 55 -38 17 18 -20 29 -22 39 -13 54 14 23 15 21 32 -37z
m-1525 -89 c0 -34 65 -158 101 -194 18 -19 52 -42 74 -52 28 -13 34 -19 19
-19 -28 0 -108 62 -145 113 -28 38 -69 150 -69 186 0 14 2 14 10 1 5 -8 10
-24 10 -35z m195 -25 c9 -10 42 -36 71 -56 60 -41 73 -64 22 -38 -38 19 -139
114 -122 114 6 0 19 -9 29 -20z m995 -49 c-6 -12 -15 -19 -20 -16 -6 3 -8 0
-5 -7 2 -7 -7 -21 -20 -31 -24 -17 -25 -17 -22 1 2 17 68 84 75 77 2 -2 -1
-13 -8 -24z m20 -30 c0 -31 -160 -132 -206 -130 -11 0 -4 6 17 14 66 24 117
54 150 90 36 38 39 40 39 26z m-994 -30 c7 -9 33 -42 58 -72 44 -53 44 -54 21
-57 -13 -2 -45 6 -71 17 -26 12 -52 21 -60 21 -10 0 -54 94 -54 117 0 13 95
-10 106 -26z m113 -76 c0 -5 -15 8 -34 29 -19 22 -35 44 -35 49 0 6 16 -7 35
-29 19 -21 34 -43 34 -49z m1031 41 c0 -42 -42 -206 -69 -269 -30 -69 -98
-153 -157 -192 -117 -78 -259 -82 -402 -13 -70 34 -152 105 -152 131 0 14 5
13 28 -7 74 -66 89 -78 114 -91 59 -32 119 -45 206 -46 77 -1 96 3 140 25 28
14 58 26 65 26 22 0 72 56 105 119 38 70 66 157 88 266 17 87 34 112 34 51z
m-120 -184 c-12 -42 -19 -86 -15 -99 6 -27 -54 -118 -85 -126 -18 -5 -19 1
-14 152 l6 156 51 46 c29 26 57 51 62 56 20 20 17 -105 -5 -185z m-927 71 c-7
-2 -21 -2 -30 0 -10 3 -4 5 12 5 17 0 24 -2 18 -5z m686 -170 c18 -179 11
-193 -87 -193 -68 0 -231 65 -193 78 9 3 4 10 -13 21 l-26 17 48 36 c38 30 96
81 167 148 6 5 28 9 51 10 l41 0 12 -117z m-441 -39 c-4 -3 -12 5 -18 18 -12
22 -12 22 6 6 10 -10 15 -20 12 -24z m-27 -200 c31 -57 40 -89 49 -163 7 -51
10 -94 8 -96 -7 -7 -83 34 -110 59 -27 24 -27 25 -32 198 -2 95 -7 184 -11
198 -3 14 8 -9 26 -50 18 -41 50 -107 70 -146z m9 136 c0 -6 11 -27 24 -48 15
-22 27 -59 30 -92 l6 -55 -25 70 c-14 39 -32 85 -40 103 -8 18 -10 32 -5 32 6
0 10 -5 10 -10z m1034 -151 c-49 -141 -104 -279 -122 -307 -11 -18 -17 -20
-23 -10 -7 10 -9 10 -9 1 0 -7 -6 -13 -14 -13 -7 0 -20 -10 -29 -22 -8 -13
-17 -21 -21 -18 -3 3 18 42 46 85 76 118 163 284 188 358 6 21 14 36 16 34 2
-2 -12 -51 -32 -108z"/>
<path d="M5784 8546 c-19 -14 -18 -15 3 -13 12 0 20 4 17 8 -2 4 2 10 8 12 7
3 8 6 2 6 -5 1 -19 -5 -30 -13z"/>
<path d="M3995 9230 c3 -5 8 -10 11 -10 2 0 4 5 4 10 0 6 -5 10 -11 10 -5 0
-7 -4 -4 -10z"/>
<path d="M2842 9114 c-65 -66 -84 -70 -42 -8 18 25 29 48 26 51 -3 3 -49 -32
-103 -79 -54 -46 -120 -101 -146 -123 -65 -52 -91 -89 -78 -113 8 -16 0 -28
-50 -78 -33 -32 -70 -72 -81 -89 -11 -16 16 6 59 51 43 44 91 91 107 105 l30
24 -25 -32 c-13 -18 -57 -67 -96 -110 -58 -61 -76 -88 -89 -131 -8 -30 -24
-66 -35 -81 -21 -29 -49 -189 -49 -286 l0 -60 22 35 c12 19 57 105 101 190 44
85 99 190 123 232 24 43 75 140 113 217 65 131 74 144 148 211 43 40 90 79
106 88 15 9 27 22 27 29 0 21 -12 13 -68 -43z m-92 -72 c0 -4 -10 -13 -22 -21
-23 -14 -23 -14 -4 8 20 22 26 25 26 13z"/>
<path d="M2953 9148 c-14 -18 -79 -167 -110 -253 -14 -38 -44 -108 -65 -155
-22 -47 -77 -170 -123 -275 -46 -104 -103 -235 -129 -290 -42 -93 -117 -321
-221 -675 -23 -80 -54 -183 -68 -230 -14 -47 -53 -191 -86 -320 -33 -129 -77
-289 -96 -355 -98 -329 -140 -540 -211 -1050 -8 -60 -18 -113 -22 -117 -8 -8
-115 71 -241 176 -65 54 -85 66 -92 55 -6 -10 -3 -15 9 -18 9 -2 57 -43 105
-92 85 -85 88 -89 65 -98 -18 -8 -9 -10 43 -10 42 -1 72 -6 85 -16 19 -15 18
-16 -9 -40 -18 -16 -23 -25 -13 -25 8 0 18 5 21 10 4 6 14 8 24 5 12 -3 35 12
72 48 71 70 106 115 174 228 31 52 68 106 81 120 l25 26 -15 105 c-9 58 -16
124 -16 147 0 22 -3 41 -8 41 -4 0 -18 -27 -31 -61 -13 -33 -25 -58 -27 -56
-3 2 2 30 10 61 23 87 35 194 46 410 9 192 19 240 40 206 7 -11 10 -7 10 17 0
17 4 33 9 35 5 2 21 35 34 73 30 83 110 264 117 265 3 0 5 -91 5 -203 0 -194
7 -262 37 -340 16 -42 19 -27 7 39 -11 62 -3 233 10 218 22 -25 101 -251 116
-329 36 -194 127 -525 155 -565 12 -17 3 48 -11 88 -5 13 -6 28 -3 33 3 6 1
16 -6 24 -6 7 -12 28 -12 45 -1 17 -5 33 -10 36 -10 6 -11 25 0 22 4 -2 7 2 7
7 0 6 -3 9 -7 8 -7 -3 -21 39 -32 92 -5 22 -4 26 4 15 8 -13 10 -13 10 2 0 9
-6 21 -14 25 -7 4 -16 26 -20 48 l-6 40 25 -48 c14 -27 25 -55 25 -63 0 -8 5
-12 10 -9 6 3 10 1 10 -6 0 -7 9 -22 19 -33 22 -24 58 -83 67 -108 8 -23 34
-24 34 -2 0 9 -13 40 -30 68 -19 34 -27 60 -23 74 3 15 0 24 -11 28 -9 3 -16
15 -16 27 0 13 23 -12 66 -72 40 -56 62 -96 58 -104 -6 -9 -5 -9 7 0 16 13 39
0 39 -21 0 -6 -4 -4 -10 4 -5 8 -12 11 -16 7 -9 -8 -1 -18 18 -21 22 -3 59
-44 46 -52 -6 -4 -17 1 -24 11 -21 28 -28 10 -8 -19 17 -26 17 -26 31 -6 l14
20 32 -21 c27 -19 25 -15 -14 27 -25 27 -63 72 -84 99 -22 28 -43 55 -48 60
-81 100 -125 184 -208 405 -50 135 -48 129 -48 102 -1 -13 15 -86 34 -162 40
-158 41 -168 21 -151 -20 17 -49 88 -100 248 -86 268 -88 281 -76 428 16 204
17 209 64 359 25 77 61 194 81 259 35 116 37 119 56 101 18 -16 19 -16 19 3 0
19 50 76 50 57 1 -5 10 9 21 30 16 30 23 36 31 25 7 -11 11 -11 15 -1 5 14 33
17 33 3 0 -17 39 -19 54 -2 20 22 20 59 -1 203 -16 111 -16 127 0 300 10 101
17 210 17 243 0 35 15 121 35 204 19 79 37 165 41 190 4 25 15 64 25 85 19 40
20 57 2 34z m-629 -1887 c10 -16 -82 -260 -108 -287 -12 -11 -16 -12 -16 -2 0
10 -3 9 -10 -2 -12 -17 -11 -13 14 106 9 39 20 82 25 95 10 23 10 23 11 -6 1
-29 2 -29 22 15 11 25 24 55 29 68 9 23 24 29 33 13z m349 -964 c-7 -11 -9 -7
-17 28 l-6 30 14 -25 c8 -14 12 -28 9 -33z"/>
<path d="M3205 9099 c4 -5 27 -20 53 -33 62 -32 113 -71 105 -80 -4 -4 0 -4 9
-1 10 4 21 -1 29 -13 8 -11 37 -37 64 -58 28 -20 56 -44 63 -51 27 -26 101
-73 116 -73 9 0 16 -5 16 -11 0 -5 5 -7 10 -4 6 3 10 2 10 -3 0 -5 14 -9 30
-9 17 0 30 4 30 9 0 4 3 7 8 6 4 -2 23 7 43 18 39 23 87 98 95 150 4 29 0 36
-49 77 -74 64 -95 70 -207 62 -98 -7 -160 -27 -160 -51 0 -8 -4 -14 -10 -14
-14 0 -12 -33 3 -49 24 -27 -17 -4 -95 52 -70 49 -177 100 -163 76z"/>
<path d="M6084 8940 c25 -34 46 -71 46 -82 0 -21 54 -123 70 -133 4 -3 18 -35
30 -72 25 -78 47 -123 59 -123 9 0 -20 104 -32 116 -4 4 -7 11 -7 16 0 17 21
-3 47 -45 14 -23 30 -45 35 -48 8 -5 47 -225 48 -263 0 -18 18 8 23 34 3 14 3
-15 0 -65 -9 -163 -37 -222 -48 -102 -7 74 -32 238 -41 270 -9 29 -27 20 -19
-10 12 -51 35 -278 35 -358 0 -60 5 -91 19 -118 30 -59 41 -146 26 -217 -3
-14 -8 -56 -11 -95 -5 -66 -4 -69 10 -45 8 14 15 35 16 48 0 12 5 22 11 22 5
0 7 -4 4 -10 -3 -5 -2 -10 3 -10 6 0 13 8 16 17 11 27 -15 334 -31 372 -8 21
-10 38 -4 44 11 11 55 -53 101 -148 l34 -70 4 -200 c3 -149 7 -194 15 -175 15
38 26 238 16 300 -5 30 -12 86 -15 124 -5 67 -24 119 -65 177 -19 26 -18 29 8
139 25 105 25 114 10 125 -13 9 -17 29 -17 81 -1 38 -6 82 -13 97 -10 24 -12
12 -13 -85 0 -66 -5 -121 -12 -133 -10 -18 -11 -16 -12 16 0 20 -6 54 -14 75
-7 22 -16 64 -19 94 l-5 55 11 -47 c17 -65 27 -70 27 -12 0 93 -58 261 -109
316 -31 34 -40 29 -14 -9 10 -15 25 -41 32 -58 10 -25 4 -20 -34 23 -26 28
-52 52 -58 52 -6 0 -20 9 -32 20 -12 11 -32 23 -45 25 -12 2 -24 6 -25 7 -1 2
-20 29 -43 60 -23 31 -46 60 -53 63 -6 4 10 -21 35 -55z"/>
<path d="M3906 8926 c6 -16 34 -30 34 -18 0 10 -22 32 -32 32 -4 0 -5 -6 -2
-14z"/>
<path d="M3120 8866 c0 -8 -5 -16 -11 -18 -14 -5 10 -64 37 -94 62 -67 130
-96 168 -71 39 26 28 56 -37 102 -95 66 -157 99 -157 81z"/>
<path d="M3046 8789 c3 -5 -1 -9 -9 -9 -22 0 -47 -34 -54 -74 -5 -35 34 -203
45 -192 2 3 16 -3 29 -14 13 -10 32 -16 41 -13 31 11 72 57 72 80 0 36 13 21
54 -59 50 -99 102 -180 112 -176 5 2 8 6 7 9 -3 10 -122 208 -158 264 -18 28
-40 72 -49 98 -9 26 -24 56 -34 66 -18 19 -66 36 -56 20z"/>
<path d="M3692 8698 c89 -108 409 -468 416 -468 4 0 -12 19 -192 235 -206 247
-240 285 -257 285 -6 0 9 -24 33 -52z"/>
<path d="M2936 8593 c-3 -25 -6 -85 -6 -132 0 -48 -5 -92 -11 -98 -7 -7 -1
-80 22 -244 17 -129 36 -252 40 -274 8 -38 8 -37 4 10 -32 386 -37 470 -30
541 6 65 9 76 19 60 31 -52 262 -354 321 -420 58 -65 39 -31 -27 50 -35 41
-74 97 -88 123 -14 26 -38 62 -52 81 -34 46 -110 190 -144 274 -14 36 -30 68
-34 71 -4 2 -10 -16 -14 -42z"/>
<path d="M4194 8583 c20 -27 52 -77 72 -113 23 -40 68 -95 117 -142 62 -59 84
-88 99 -130 10 -29 17 -39 14 -23 -9 57 -35 101 -98 171 -63 67 -138 162 -188
237 -14 20 -31 39 -39 42 -7 3 3 -16 23 -42z"/>
<path d="M3370 8273 c0 -5 9 -19 20 -33 11 -14 20 -28 20 -32 0 -14 62 -98 71
-98 12 0 9 4 -48 86 -24 34 -43 67 -43 73 0 6 -4 11 -10 11 -5 0 -10 -3 -10
-7z"/>
<path d="M3687 8257 c-4 -10 2 -13 19 -9 18 3 33 -5 59 -33 19 -20 33 -41 30
-46 -3 -4 -28 -11 -55 -15 -27 -4 -47 -10 -44 -15 3 -5 -1 -6 -9 -3 -23 8 -65
-13 -79 -42 -7 -15 -20 -29 -28 -32 -10 -2 -11 -1 -3 5 6 4 15 22 19 38 4 17
21 47 37 67 17 21 28 40 25 43 -3 3 -28 -26 -57 -65 -29 -38 -56 -72 -62 -76
-6 -3 -19 2 -30 12 -23 20 -26 9 -3 -13 14 -14 13 -18 -4 -37 -10 -11 -27 -34
-37 -51 -16 -26 -11 -24 37 18 31 26 58 42 60 37 2 -6 10 -12 18 -13 8 -2 20
-6 26 -10 7 -4 17 0 23 7 8 9 8 17 2 20 -5 3 -11 0 -14 -6 -3 -7 -4 -3 -4 10
1 26 12 29 21 6 3 -8 11 -12 17 -9 5 4 -11 -24 -37 -62 -25 -37 -51 -71 -58
-75 -6 -4 18 -35 64 -79 41 -39 67 -66 58 -59 -10 7 -18 9 -19 4 0 -5 -2 -17
-4 -26 -2 -10 1 -20 6 -24 5 -3 9 0 9 7 0 9 3 9 14 0 17 -14 31 2 20 22 -5 8
-2 8 9 -2 20 -16 23 -43 3 -35 -24 9 -27 -13 -3 -28 33 -22 64 -28 64 -12 0 7
-4 11 -8 9 -9 -6 -34 24 -26 31 8 9 58 -27 51 -37 -3 -5 4 -9 14 -9 18 0 72
59 146 159 40 53 108 131 115 131 4 0 22 -13 41 -30 l35 -30 -21 -17 c-26 -21
-194 -220 -194 -229 0 -3 -21 -31 -47 -61 -35 -41 -42 -54 -27 -49 11 3 38 -1
58 -9 21 -9 35 -11 31 -6 -3 6 -11 11 -16 11 -6 0 -17 7 -26 15 -13 14 -12 19
13 48 31 37 64 62 64 49 0 -5 16 -17 35 -26 19 -9 47 -27 62 -39 49 -41 160
-117 169 -117 5 1 -7 15 -26 32 -39 34 -45 34 68 3 92 -26 112 -15 22 11 -96
28 -259 99 -276 120 -6 8 -15 14 -21 14 -5 0 -14 5 -20 11 -8 8 12 39 71 113
45 56 85 109 88 118 7 17 -60 79 -84 77 -15 -1 -225 -228 -234 -254 -5 -11
-14 -15 -29 -11 -26 7 -142 115 -137 129 1 5 -2 6 -7 3 -11 -7 -33 18 -24 28
4 4 0 4 -8 1 -24 -9 -40 16 -24 38 12 16 14 16 28 2 10 -9 18 -11 22 -5 3 5 2
10 -4 10 -13 0 -10 42 5 58 7 6 18 12 24 12 6 0 9 4 5 10 -3 5 2 19 12 31 10
12 29 36 43 53 73 90 94 126 70 126 -5 0 -27 16 -49 35 -40 37 -65 44 -74 22z
m21 -147 c-7 -10 -15 -16 -18 -12 -3 4 -9 11 -15 15 -6 5 -3 7 7 3 10 -3 20
-1 23 4 4 6 8 10 11 10 2 0 -1 -9 -8 -20z m-63 0 c-3 -5 -12 -10 -18 -10 -7 0
-6 4 3 10 19 12 23 12 15 0z m-14 -138 c-5 -10 -18 -25 -28 -33 -12 -10 -11
-5 6 19 24 35 38 43 22 14z"/>
<path d="M6588 7994 c-3 -3 0 -29 8 -57 8 -29 14 -63 15 -77 2 -24 2 -24 6 -2
4 20 7 21 21 10 14 -11 15 -10 7 7 -4 11 -12 38 -18 60 -5 22 -11 46 -13 53
-4 13 -17 16 -26 6z"/>
<path d="M4585 7939 c3 -13 25 -62 48 -109 50 -102 46 -94 52 -89 2 3 -16 45
-40 95 -25 49 -45 94 -45 101 0 6 -5 15 -11 19 -8 4 -9 -1 -4 -17z"/>
<path d="M3420 7930 c-8 -5 -12 -12 -9 -15 4 -3 12 1 19 10 14 17 11 19 -10 5z"/>
<path d="M2896 7815 c-9 -126 -1 -534 13 -620 7 -40 9 -23 10 85 2 133 3 135
19 100 53 -115 104 -216 114 -225 5 -5 1 8 -10 30 -46 95 -72 155 -99 230 -26
76 -28 92 -33 300 l-5 220 -9 -120z"/>
<path d="M3442 7855 c15 -16 29 -27 31 -24 3 2 -10 15 -27 28 l-31 24 27 -28z"/>
<path d="M4384 7811 c17 -17 34 -31 39 -31 14 0 -23 39 -48 52 -14 8 -12 2 9
-21z"/>
<path d="M6637 7829 c-9 -6 -17 -18 -17 -27 1 -16 2 -16 14 1 12 15 16 11 35
-43 29 -78 44 -87 22 -12 -25 82 -32 93 -54 81z"/>
<path d="M6335 7820 c-10 -16 4 -82 16 -75 11 8 12 55 0 74 -6 10 -10 10 -16
1z"/>
<path d="M3497 7809 c7 -7 15 -10 18 -7 3 3 -2 9 -12 12 -14 6 -15 5 -6 -5z"/>
<path d="M2992 7765 c0 -16 2 -22 5 -12 2 9 2 23 0 30 -3 6 -5 -1 -5 -18z"/>
<path d="M6635 7763 c-3 -10 -3 -63 2 -118 7 -91 8 -95 13 -50 4 28 8 55 9 60
8 26 0 66 -11 59 -8 -5 -9 3 -5 29 6 40 3 48 -8 20z"/>
<path d="M3550 7766 c0 -2 8 -10 18 -17 15 -13 16 -12 3 4 -13 16 -21 21 -21
13z"/>
<path d="M3923 7755 c0 -8 4 -12 9 -9 5 3 6 10 3 15 -9 13 -12 11 -12 -6z"/>
<path d="M1713 7726 c-64 -24 -118 -54 -110 -62 2 -3 46 7 98 21 140 38 142
39 147 53 6 20 -66 14 -135 -12z"/>
<path d="M3590 7736 c0 -13 110 -87 120 -81 14 9 -6 35 -27 35 -7 0 -16 7 -20
16 -3 8 -11 13 -18 10 -7 -2 -22 2 -34 10 -11 8 -21 13 -21 10z"/>
<path d="M3005 7685 c9 -58 71 -303 90 -350 20 -53 14 -25 -45 200 -28 105
-48 172 -45 150z"/>
<path d="M3508 7703 c6 -2 18 -2 25 0 6 3 1 5 -13 5 -14 0 -19 -2 -12 -5z"/>
<path d="M4020 7696 c0 -15 24 -28 34 -19 7 7 -13 33 -25 33 -5 0 -9 -6 -9
-14z"/>
<path d="M3375 7685 c-78 -19 -83 -21 -53 -27 15 -3 25 -2 23 2 -3 4 21 12 53
18 31 7 66 13 77 16 11 2 4 4 -15 4 -19 0 -58 -6 -85 -13z"/>
<path d="M6306 7637 c-4 -28 -16 -92 -27 -142 -62 -281 -69 -303 -145 -436
-24 -42 -44 -79 -44 -83 0 -4 14 3 30 16 17 12 30 28 30 35 0 7 5 13 11 13 5
0 8 4 5 9 -4 5 -3 11 2 13 4 1 21 20 36 41 23 30 26 40 16 52 -10 12 -7 27 13
77 48 122 83 260 93 370 8 88 -10 119 -20 35z m-96 -507 c-8 -5 -16 -8 -17 -6
-2 2 -1 11 3 20 5 13 10 14 18 6 8 -8 7 -13 -4 -20z"/>
<path d="M3220 7645 c-47 -18 -27 -18 30 -1 25 8 36 15 25 15 -11 0 -36 -7
-55 -14z"/>
<path d="M4745 7640 l30 -21 -30 6 c-27 5 -28 4 -8 -6 12 -6 30 -9 39 -5 15 6
16 9 3 20 -8 8 -25 17 -39 21 -23 6 -23 5 5 -15z"/>
<path d="M1746 7622 c-30 -6 -129 -68 -155 -96 -33 -35 -23 -33 41 9 29 20 69
40 89 45 55 15 79 54 25 42z"/>
<path d="M3110 7610 c-18 -12 -2 -12 25 0 13 6 15 9 5 9 -8 0 -22 -4 -30 -9z"/>
<path d="M4865 7498 c-4 -31 -5 -63 -2 -70 3 -7 6 -3 6 10 1 13 5 31 11 41 5
10 6 30 1 47 -7 26 -9 24 -16 -28z"/>
<path d="M1759 7515 c-136 -23 -269 -70 -269 -96 0 -6 7 -9 14 -6 66 26 179
38 286 31 l114 -7 -17 26 c-16 24 -16 27 -1 35 9 5 14 14 10 21 -9 14 -38 13
-137 -4z"/>
<path d="M3520 7513 c-176 -21 -272 -69 -341 -170 -28 -40 -29 -43 -9 -43 18
0 20 -4 14 -39 l-6 -38 66 63 c47 44 86 70 132 88 94 38 109 36 124 -19 12
-41 14 -44 41 -38 16 3 35 1 42 -5 10 -8 21 -7 41 3 35 18 36 18 36 1 0 -8 7
-17 17 -20 15 -6 15 -7 -1 -19 -14 -10 -15 -15 -4 -30 12 -16 16 -15 60 6 26
12 48 29 48 37 3 33 19 -27 20 -75 l2 -50 12 55 c8 30 19 84 26 120 9 42 21
72 37 86 13 12 23 24 23 26 0 3 -28 13 -62 23 -79 22 -85 25 -64 41 23 16
-108 15 -254 -3z m-240 -108 c-10 -12 -10 -15 1 -15 8 0 5 -6 -7 -14 -28 -21
-40 4 -11 26 27 22 33 23 17 3z m470 -66 c0 -5 -4 -9 -10 -9 -5 0 -10 7 -10
16 0 8 5 12 10 9 6 -3 10 -10 10 -16z m-5 -39 c3 -5 1 -10 -4 -10 -6 0 -11 5
-11 10 0 6 2 10 4 10 3 0 8 -4 11 -10z"/>
<path d="M4357 7519 c7 -7 15 -10 18 -7 3 3 -2 9 -12 12 -14 6 -15 5 -6 -5z"/>
<path d="M4961 7473 c7 -12 15 -20 18 -17 3 2 -3 12 -13 22 -17 16 -18 16 -5
-5z"/>
<path d="M3207 7435 c-9 -19 -15 -35 -12 -35 7 0 37 61 33 66 -3 2 -12 -12
-21 -31z"/>
<path d="M4852 7390 c0 -14 2 -19 5 -12 2 6 2 18 0 25 -3 6 -5 1 -5 -13z"/>
<path d="M4556 7274 c-4 -10 -1 -14 6 -12 15 5 23 28 10 28 -5 0 -13 -7 -16
-16z"/>
<path d="M4675 7248 c-4 -24 -18 -78 -30 -122 -13 -43 -20 -74 -15 -70 13 15
61 156 66 197 7 51 -13 47 -21 -5z"/>
<path d="M3547 7263 c-13 -3 -16 -10 -11 -26 12 -39 75 -159 81 -154 4 5 -17
119 -33 175 -3 12 -7 13 -37 5z"/>
<path d="M3712 7209 c2 -6 8 -10 13 -10 5 0 11 4 13 10 2 6 -4 11 -13 11 -9 0
-15 -5 -13 -11z"/>
<path d="M3630 7203 c0 -4 5 -15 10 -23 8 -13 10 -13 10 2 0 9 -4 20 -10 23
-5 3 -10 3 -10 -2z"/>
<path d="M6395 7143 c-21 -32 -47 -69 -59 -82 l-21 -23 36 23 c20 13 35 26 33
28 -2 2 12 24 31 49 19 25 35 49 35 53 0 22 -20 4 -55 -48z"/>
<path d="M4556 7112 c-4 -41 -5 -76 -3 -79 7 -7 20 99 15 128 -2 13 -7 -9 -12
-49z"/>
<path d="M3070 7120 c6 -11 13 -20 16 -20 2 0 0 9 -6 20 -6 11 -13 20 -16 20
-2 0 0 -9 6 -20z"/>
<path d="M1570 7121 c0 -11 88 -58 164 -86 74 -28 123 -32 151 -11 18 13 18
14 -2 24 -12 7 -62 18 -112 26 -50 8 -96 18 -101 21 -20 12 -100 33 -100 26z"/>
<path d="M2921 7090 c-1 -79 53 -370 66 -356 2 2 -4 44 -13 92 -9 49 -25 139
-34 199 -13 77 -18 97 -19 65z"/>
<path d="M5041 7114 c0 -11 3 -14 6 -6 3 7 2 16 -1 19 -3 4 -6 -2 -5 -13z"/>
<path d="M6186 7008 c-9 -12 -16 -29 -16 -36 0 -9 -6 -12 -16 -8 -8 3 -12 2
-9 -4 7 -12 -37 -41 -77 -49 -17 -4 -33 -12 -35 -18 -10 -28 162 33 194 69 18
21 18 21 -7 8 l-25 -13 21 24 c39 44 38 54 -2 24 l-39 -30 18 28 c21 32 15 37
-7 5z"/>
<path d="M4753 6947 c-12 -39 -20 -73 -18 -75 5 -5 47 127 43 137 -2 6 -13
-22 -25 -62z"/>
<path d="M2821 6899 c-1 -37 4 -113 9 -170 17 -171 19 -192 26 -254 3 -33 15
-91 26 -130 11 -38 29 -104 39 -145 15 -63 52 -176 84 -255 7 -18 5 -17 -21 5
l-29 25 24 -27 c13 -15 27 -25 31 -23 5 3 11 -5 14 -18 6 -20 70 -97 81 -97 6
0 -45 83 -55 90 -15 11 -31 51 -24 62 4 6 3 8 -4 4 -19 -11 -25 33 -7 60 17
27 29 25 46 -8 8 -15 8 -19 0 -14 -7 5 -11 -3 -11 -21 1 -24 2 -25 11 -10 15
25 27 21 21 -8 -2 -14 0 -25 7 -25 5 0 8 7 5 15 -4 8 -1 15 5 15 6 0 11 -8 11
-17 0 -9 3 -13 7 -10 3 4 15 -5 25 -20 10 -16 18 -24 18 -19 0 5 9 1 20 -9 11
-10 17 -21 15 -26 -3 -4 4 -10 15 -14 11 -3 20 -11 20 -16 0 -6 5 -7 12 -3 7
5 8 3 2 -7 -14 -23 -13 -38 2 -32 8 3 14 0 14 -6 0 -6 6 -11 13 -11 6 1 1 10
-12 20 -28 24 -24 25 16 5 34 -17 68 -50 40 -40 -8 4 -17 2 -21 -3 -3 -5 5 -8
17 -7 12 1 28 -2 35 -8 9 -7 12 -4 12 9 -1 11 -24 37 -52 59 -132 102 -209
194 -292 349 -27 49 -65 113 -86 141 -29 40 -42 71 -54 128 -23 110 -22 117
26 158 38 33 41 39 31 60 -6 13 -21 53 -33 89 -13 36 -35 101 -50 145 l-28 80
-1 -66z m121 -668 c-3 -9 -1 -12 6 -7 8 5 10 1 5 -10 -5 -12 -3 -15 6 -9 10 6
11 2 6 -15 -5 -15 -4 -20 4 -16 7 5 9 1 5 -9 -5 -11 -2 -14 11 -9 12 5 16 2
15 -12 -4 -36 0 -55 10 -49 12 7 7 -44 -7 -69 -8 -14 -12 -10 -23 26 -7 24
-14 50 -14 58 -1 9 -5 21 -10 28 -4 6 -4 17 -1 22 3 6 2 10 -3 10 -5 0 -12 18
-16 39 -3 22 -9 48 -12 58 -6 16 -5 16 9 -2 8 -10 12 -26 9 -34z"/>
<path d="M2966 6138 c3 -4 9 -8 15 -8 5 0 9 4 9 8 0 5 -7 9 -15 9 -8 0 -12 -4
-9 -9z"/>
<path d="M6550 6950 c-9 -6 -10 -10 -3 -10 6 0 15 5 18 10 8 12 4 12 -15 0z"/>
<path d="M4915 6903 l-38 -48 43 42 c24 23 42 45 38 48 -3 3 -22 -16 -43 -42z"/>
<path d="M4521 6875 c-1 -5 -8 -31 -16 -57 -8 -27 -10 -48 -6 -48 12 0 34 74
28 96 -2 10 -5 15 -6 9z"/>
<path d="M1035 6848 c-15 -45 -53 -193 -50 -196 3 -3 33 91 61 191 6 19 -4 24
-11 5z"/>
<path d="M1066 6827 c3 -10 9 -15 12 -12 3 3 0 11 -7 18 -10 9 -11 8 -5 -6z"/>
<path d="M6048 6833 c7 -3 16 -2 19 1 4 3 -2 6 -13 5 -11 0 -14 -3 -6 -6z"/>
<path d="M1569 6816 c38 -46 239 -99 289 -76 23 10 24 12 9 27 -12 12 -45 19
-119 24 -57 4 -123 14 -147 23 -34 12 -41 13 -32 2z"/>
<path d="M5966 6815 c-11 -29 5 -42 56 -48 27 -4 56 -11 64 -18 7 -6 19 -9 26
-6 8 3 6 6 -5 6 -10 1 -15 6 -12 11 4 6 3 10 -2 9 -13 -3 -93 33 -93 42 0 4 8
10 18 12 9 3 3 5 -14 6 -20 1 -34 -5 -38 -14z"/>
<path d="M4662 6728 c-19 -33 -31 -62 -29 -65 3 -3 20 23 37 57 41 80 35 86
-8 8z"/>
<path d="M5015 6754 c-15 -19 -25 -37 -24 -39 2 -2 17 14 32 36 35 49 29 52
-8 3z"/>
<path d="M5936 6775 c-3 -8 -1 -15 4 -15 6 0 10 7 10 15 0 8 -2 15 -4 15 -2 0
-6 -7 -10 -15z"/>
<path d="M6370 6766 c-33 -9 -40 -14 -25 -18 18 -4 75 16 75 27 0 3 -1 5 -2 4
-2 -1 -23 -7 -48 -13z"/>
<path d="M2522 6740 c0 -14 2 -19 5 -12 2 6 2 18 0 25 -3 6 -5 1 -5 -13z"/>
<path d="M5431 6714 c0 -11 3 -14 6 -6 3 7 2 16 -1 19 -3 4 -6 -2 -5 -13z"/>
<path d="M2991 6704 c0 -11 3 -14 6 -6 3 7 2 16 -1 19 -3 4 -6 -2 -5 -13z"/>
<path d="M2152 6630 c0 -14 2 -19 5 -12 2 6 2 18 0 25 -3 6 -5 1 -5 -13z"/>
<path d="M4995 6579 c-20 -28 -34 -53 -32 -55 2 -2 20 21 41 51 46 69 40 72
-9 4z"/>
<path d="M1092 6556 c-6 -34 -20 -82 -32 -107 -11 -24 -20 -58 -20 -75 0 -33
-30 -156 -61 -248 -11 -32 -18 -63 -17 -68 5 -14 88 233 88 260 0 44 18 20 46
-58 15 -44 31 -80 36 -80 11 0 12 -5 -27 89 -39 92 -41 117 -21 200 8 31 17
69 21 85 l6 29 35 -34 c20 -19 53 -63 74 -99 46 -78 91 -123 145 -146 l40 -16
-30 -25 c-32 -26 -107 -76 -167 -112 -20 -12 -39 -28 -42 -36 -9 -25 169 96
310 211 23 18 16 26 -8 10 -20 -12 -29 -13 -61 -1 -68 24 -115 63 -168 142
-51 75 -88 116 -119 133 -13 7 -18 -3 -28 -54z"/>
<path d="M4992 6473 c-6 -31 -10 -58 -8 -60 8 -9 35 90 28 103 -5 9 -12 -6
-20 -43z"/>
<path d="M5065 6498 c-4 -18 -10 -35 -14 -38 -3 -3 -4 -23 -1 -45 5 -37 6 -35
17 35 12 76 11 108 -2 48z"/>
<path d="M1755 6481 c-11 -5 -51 -32 -90 -60 -38 -28 -73 -52 -77 -53 -4 -2
-14 -24 -22 -50 -8 -27 -10 -45 -5 -42 5 3 9 11 9 19 0 7 17 19 38 26 43 14
147 70 180 99 15 12 22 28 20 42 -3 25 -22 32 -53 19z"/>
<path d="M4868 6338 c-14 -35 -28 -76 -31 -93 l-6 -30 14 30 c8 17 14 35 15
42 0 6 9 33 20 59 11 26 19 49 16 51 -2 2 -15 -24 -28 -59z"/>
<path d="M2267 6350 c-24 -63 -40 -541 -18 -555 8 -4 11 41 12 147 1 141 2
149 13 103 10 -44 11 -28 8 120 -2 94 -4 177 -6 185 -3 13 -4 13 -9 0z"/>
<path d="M5371 6315 c-43 -49 -39 -58 6 -13 20 21 34 40 31 43 -3 3 -19 -10
-37 -30z"/>
<path d="M2731 6174 c0 -11 3 -14 6 -6 3 7 2 16 -1 19 -3 4 -6 -2 -5 -13z"/>
<path d="M2646 6153 c-6 -14 -5 -15 5 -6 7 7 10 15 7 18 -3 3 -9 -2 -12 -12z"/>
<path d="M1410 6105 c-60 -45 -99 -84 -116 -117 -10 -19 3 -10 43 30 32 32 76
72 98 89 53 42 32 41 -25 -2z"/>
<path d="M2665 6058 c-11 -12 -15 -18 -8 -14 6 3 16 -2 22 -11 9 -15 10 -13
11 15 0 37 1 37 -25 10z"/>
<path d="M3026 6024 c-8 -20 -4 -25 11 -16 7 4 9 13 4 21 -6 10 -10 9 -15 -5z"/>
<path d="M2897 5994 c-4 -4 -3 -12 1 -18 4 -6 7 -13 8 -16 0 -3 6 -16 12 -30
10 -23 11 -22 11 17 1 36 -2 41 -16 36 -11 -4 -14 -3 -9 5 8 13 3 16 -7 6z"/>
<path d="M2660 5971 c0 -5 5 -13 10 -16 6 -3 10 -2 10 4 0 5 -4 13 -10 16 -5
3 -10 2 -10 -4z"/>
<path d="M2691 5964 c0 -11 3 -14 6 -6 3 7 2 16 -1 19 -3 4 -6 -2 -5 -13z"/>
<path d="M2566 5930 c4 -19 10 -44 15 -55 l8 -20 0 20 c0 11 -7 36 -15 55
l-14 35 6 -35z"/>
<path d="M1226 5894 c-21 -30 -36 -57 -34 -60 3 -2 19 17 37 42 21 28 38 43
47 40 12 -4 12 -2 4 14 -6 11 -12 20 -13 20 -1 0 -19 -25 -41 -56z"/>
<path d="M2822 5933 c4 -21 33 -25 33 -3 0 8 -8 16 -18 18 -14 3 -18 -1 -15
-15z"/>
<path d="M2700 5916 c0 -8 4 -17 9 -20 5 -4 7 3 4 14 -6 23 -13 26 -13 6z"/>
<path d="M911 5890 c-8 -23 -7 -30 3 -30 7 0 13 12 13 30 0 17 -1 30 -3 30 -1
0 -7 -13 -13 -30z"/>
<path d="M4453 5880 c-65 -42 -78 -60 -43 -60 11 0 20 7 20 15 0 9 6 12 15 9
9 -4 15 -1 15 7 0 8 14 26 32 41 46 38 33 34 -39 -12z"/>
<path d="M2873 5897 c-3 -5 -1 -7 5 -4 7 5 8 -6 5 -33 l-6 -40 32 16 c21 11
30 21 27 31 -3 8 -6 18 -6 23 0 12 -50 19 -57 7z"/>
<path d="M2997 5903 c-4 -3 -6 -54 -5 -112 l2 -106 5 110 c7 122 7 118 -2 108z"/>
<path d="M860 5850 c-9 -6 -10 -10 -3 -10 6 0 15 5 18 10 8 12 4 12 -15 0z"/>
<path d="M1405 5760 c3 -5 8 -10 11 -10 2 0 4 5 4 10 0 6 -5 10 -11 10 -5 0
-7 -4 -4 -10z"/>
<path d="M2177 5710 c-3 -11 -1 -20 4 -20 5 0 9 9 9 20 0 11 -2 20 -4 20 -2 0
-6 -9 -9 -20z"/>
<path d="M5625 5662 c-6 -5 -67 -29 -137 -52 -70 -24 -126 -45 -124 -47 3 -4
157 38 209 57 73 27 87 33 87 41 0 11 -23 12 -35 1z"/>
<path d="M5640 5498 c0 -7 12 -22 26 -35 19 -16 24 -28 19 -40 -6 -15 -9 -14
-21 12 -7 17 -13 25 -14 19 0 -14 18 -71 36 -109 l13 -30 -1 30 c-1 17 3 39 7
50 8 18 7 19 -8 6 -10 -8 -17 -9 -17 -3 0 6 5 14 10 17 13 8 13 45 -1 45 -5 0
-8 3 -6 8 3 4 -6 15 -19 25 -17 12 -24 14 -24 5z"/>
<path d="M1150 5422 c0 -5 10 -17 21 -28 22 -19 22 -19 10 3 -12 24 -31 39
-31 25z"/>
<path d="M1555 5421 c-13 -12 -74 -48 -102 -61 -32 -13 -29 -22 5 -14 38 9
150 84 125 84 -10 0 -23 -4 -28 -9z"/>
<path d="M5711 5382 c-15 -28 -5 -48 15 -31 11 9 14 9 14 -1 0 -8 3 -11 6 -8
3 4 -1 19 -9 34 l-14 28 -12 -22z"/>
<path d="M4841 5374 c-19 -8 -31 -17 -28 -20 3 -3 25 3 49 14 49 23 30 29 -21
6z"/>
<path d="M5795 5353 c-6 -41 -29 -64 -39 -40 -3 9 -5 9 -5 0 -1 -19 -19 -16
-24 5 -3 11 -5 9 -6 -8 -1 -19 -3 -22 -10 -11 -6 9 -7 -9 -4 -50 3 -35 9 -68
14 -73 12 -13 11 -29 -2 -63 -7 -15 -13 -37 -14 -48 -2 -11 -10 -45 -19 -75
-27 -97 -84 -362 -100 -470 -8 -58 -18 -166 -21 -240 -5 -98 -12 -152 -28
-197 -11 -35 -24 -63 -28 -63 -4 0 -26 35 -50 78 -61 112 -199 309 -187 266 2
-6 51 -101 111 -211 l107 -201 -44 -154 c-83 -287 -126 -475 -192 -838 -35
-196 -109 -668 -136 -867 l-23 -163 -70 0 c-121 0 -138 6 -164 56 l-23 43 27
46 c22 39 25 49 13 62 -9 12 -10 15 0 9 20 -12 14 1 -13 28 -21 21 -23 29 -15
56 5 18 14 39 21 48 14 21 -28 -26 -81 -89 -63 -75 -100 -146 -116 -223 -8
-39 -21 -93 -29 -121 -20 -71 -47 -186 -50 -215 -5 -49 -27 -127 -74 -270 -27
-80 -57 -183 -66 -230 -22 -109 -95 -363 -133 -460 -16 -41 -41 -108 -56 -148
-17 -44 -32 -69 -38 -65 -7 3 -8 1 -4 -6 10 -16 -10 -77 -69 -206 -12 -27 -26
-61 -30 -75 -4 -14 -25 -58 -47 -97 l-40 -73 79 0 78 0 28 44 c26 41 27 48 16
84 -10 34 -8 44 9 79 30 58 87 130 156 196 l61 58 50 -7 c28 -4 158 -8 290
-10 157 -2 239 -7 238 -14 -2 -5 4 -10 12 -10 10 0 12 6 8 18 -6 14 -4 15 9 4
13 -10 17 -10 21 0 4 9 6 9 6 1 1 -6 -6 -18 -14 -27 -8 -8 -15 -19 -15 -25 0
-6 -12 -30 -27 -54 -24 -38 -133 -261 -154 -314 -8 -22 -7 -23 49 -23 56 0 59
1 75 32 9 18 28 53 42 78 13 24 27 49 29 55 3 6 9 4 15 -5 6 -9 11 -10 11 -3
0 6 9 9 20 6 23 -6 27 -23 6 -23 -15 0 -30 -56 -19 -73 3 -6 1 -7 -5 -3 -8 5
-12 -1 -12 -17 0 -18 -8 -27 -32 -35 -25 -7 47 -10 277 -10 171 0 304 2 298 5
-15 6 -17 42 -3 63 6 9 5 19 -2 28 -9 10 -8 16 3 23 12 7 10 15 -8 48 -13 22
-23 46 -23 53 0 8 -9 21 -20 30 -10 9 -31 36 -47 60 -15 24 -46 66 -70 94 -23
29 -47 64 -53 79 -12 32 -6 39 78 81 28 15 53 32 53 38 3 25 5 34 26 96 20 59
22 91 26 340 l5 275 61 185 c34 102 66 214 71 250 11 73 54 252 66 271 4 8 3
10 -5 5 -6 -4 -18 -1 -26 8 -19 18 -20 33 -2 17 10 -8 18 -6 33 7 10 9 36 26
56 37 40 20 56 42 32 42 -8 0 -14 -6 -14 -14 0 -10 -5 -11 -19 -4 -16 9 -18 8
-15 -7 4 -14 -1 -17 -28 -16 -18 1 -35 3 -38 4 -31 11 -51 7 -69 -16 -12 -15
-25 -23 -32 -18 -8 4 -9 3 -5 -4 4 -7 22 -12 39 -13 30 -1 30 -1 7 -8 -24 -7
-23 -8 10 -15 29 -6 32 -9 18 -17 -30 -17 -239 -49 -418 -64 -41 -3 -93 -8
-114 -12 l-39 -5 6 63 c6 65 131 868 168 1079 31 175 161 738 179 769 6 11 14
3 30 -30 13 -24 47 -85 77 -136 75 -128 79 -141 109 -323 26 -157 26 -163 9
-198 l-17 -37 21 19 c12 11 21 17 21 14 0 -3 16 -86 35 -184 19 -99 35 -183
35 -189 0 -5 -39 27 -86 72 -47 45 -94 85 -103 88 -9 2 -31 30 -49 60 -31 51
-62 72 -62 43 0 -50 149 -303 270 -458 71 -91 99 -136 104 -165 4 -22 17 -79
28 -128 20 -86 20 -87 37 -65 41 53 42 62 31 211 -6 78 -22 193 -37 257 -35
155 -129 531 -138 553 -4 9 -3 17 1 17 9 0 62 -178 144 -478 34 -123 50 -154
50 -94 0 24 -76 301 -141 513 l-29 96 60 104 c58 101 122 243 173 385 55 153
147 508 147 566 0 13 -14 43 -30 68 -16 25 -30 42 -30 39 0 -26 -38 -199 -71
-324 -64 -247 -243 -775 -262 -775 -3 0 -17 35 -32 78 -41 116 -48 109 -15
-14 16 -60 25 -113 21 -117 -5 -5 -12 4 -15 19 -16 62 -128 334 -136 329 -5
-3 -17 18 -28 47 -11 29 -36 89 -56 133 -40 87 -39 106 10 164 12 14 57 94 99
176 43 83 99 191 124 240 26 50 65 142 86 205 21 63 49 146 62 184 27 79 29
106 9 106 -17 0 -72 -70 -121 -152 -5 -10 -44 -71 -86 -135 -42 -65 -89 -142
-105 -170 -15 -29 -29 -51 -30 -50 -5 4 69 341 116 527 22 91 43 176 46 190 3
14 13 59 23 100 32 127 32 130 20 130 -6 0 -19 10 -29 22 l-18 22 -7 -41z
m-197 -4054 c5 -28 -124 -72 -243 -83 l-60 -5 50 15 c28 8 80 24 116 34 37 11
77 29 90 40 26 21 43 21 47 -1z m-98 -709 c-8 -5 -19 -10 -25 -10 -5 0 -3 5 5
10 8 5 20 10 25 10 6 0 3 -5 -5 -10z m-381 -406 c-17 -21 -21 -11 -8 22 10 23
13 25 16 11 3 -10 -1 -25 -8 -33z m492 -37 c-10 -9 -11 -8 -5 6 3 10 9 15 12
12 3 -3 0 -11 -7 -18z"/>
<path d="M1288 5331 c37 -24 46 -25 85 -8 28 12 27 12 -20 12 -26 0 -59 4 -73
8 -20 7 -18 4 8 -12z"/>
<path d="M4657 5294 c-16 -9 -27 -18 -24 -21 6 -5 67 24 67 32 0 8 -14 5 -43
-11z"/>
<path d="M1598 5229 c-13 -17 -45 -46 -71 -65 -27 -19 -56 -49 -65 -66 -9 -16
-33 -47 -52 -67 -49 -51 -110 -126 -110 -137 0 -11 127 128 166 182 16 23 55
63 85 89 29 25 60 57 67 70 18 34 7 31 -20 -6z"/>
<path d="M5888 5113 c6 -2 18 -2 25 0 6 3 1 5 -13 5 -14 0 -19 -2 -12 -5z"/>
<path d="M4358 5083 c6 -2 18 -2 25 0 6 3 1 5 -13 5 -14 0 -19 -2 -12 -5z"/>
<path d="M5535 5050 c-60 -15 -121 -33 -135 -38 -46 -19 1 -12 84 12 44 14
107 30 139 36 31 6 57 13 57 16 0 8 -38 2 -145 -26z"/>
<path d="M5966 4975 c4 -22 11 -44 16 -50 7 -7 8 2 3 25 -11 52 -27 73 -19 25z"/>
<path d="M5290 4990 c8 -5 22 -9 30 -9 10 0 8 3 -5 9 -27 12 -43 12 -25 0z"/>
<path d="M5350 4970 c8 -5 29 -10 45 -10 27 0 100 -16 170 -37 11 -3 17 -3 14
1 -11 12 -174 56 -209 56 -26 0 -31 -3 -20 -10z"/>
<path d="M4135 4896 c141 -65 253 -121 279 -139 16 -12 26 -16 22 -9 -16 26
-306 173 -339 171 -7 0 11 -10 38 -23z"/>
<path d="M1185 4788 c-16 -12 -54 -40 -83 -61 -30 -21 -51 -41 -48 -44 6 -6
124 77 150 106 24 27 19 26 -19 -1z"/>
<path d="M6012 4765 c0 -16 2 -22 5 -12 2 9 2 23 0 30 -3 6 -5 -1 -5 -18z"/>
<path d="M4879 4681 c-66 -26 -223 -122 -293 -178 -32 -27 -68 -56 -80 -65
-19 -16 -30 -16 -156 -3 -142 16 -574 19 -667 6 -37 -5 -58 -14 -72 -32 -29
-35 -26 -42 17 -35 92 14 440 18 604 7 95 -7 176 -16 180 -20 4 -4 -11 -29
-34 -56 -57 -69 -144 -203 -175 -272 -15 -32 -41 -107 -58 -168 l-31 -109
-109 -22 c-206 -41 -323 -75 -536 -158 -103 -40 -154 -55 -175 -51 -53 10
-267 23 -281 18 -7 -3 -13 -18 -13 -33 0 -19 -11 -37 -34 -58 l-34 -30 30 -6
c17 -3 58 -7 92 -7 33 -1 75 -4 91 -8 29 -7 29 -8 -40 -43 -106 -54 -223 -125
-296 -179 -59 -44 -205 -116 -215 -106 -5 4 62 84 164 196 43 46 81 90 86 99
11 20 -61 -36 -78 -60 -7 -10 -28 -35 -47 -56 -98 -108 -191 -225 -174 -218
36 16 128 46 131 44 1 -2 -55 -56 -125 -120 -171 -160 -193 -174 -171 -112
l10 29 -26 -32 c-15 -18 -34 -47 -43 -65 -12 -25 -26 -35 -62 -44 -53 -13 -94
-33 -68 -34 8 0 37 7 63 16 26 9 49 15 51 13 2 -3 -2 -23 -8 -46 -6 -23 -8
-45 -4 -49 8 -8 117 70 230 165 49 42 105 89 125 106 l35 29 -5 -29 c-3 -17
-19 -91 -36 -165 -17 -74 -35 -190 -42 -257 -14 -158 -15 -530 -1 -613 33
-187 70 -332 71 -275 0 11 9 94 20 185 48 397 92 859 97 1030 6 175 7 185 29
207 13 13 21 29 19 36 -7 18 259 187 294 187 28 0 134 -304 204 -585 52 -204
110 -496 105 -523 -2 -9 -14 33 -27 93 -52 248 -124 506 -137 492 -3 -3 2 -35
11 -72 51 -221 78 -398 94 -615 6 -80 14 -175 16 -212 3 -38 2 -68 -3 -68 -14
0 -39 84 -35 117 7 45 -13 96 -45 114 -18 10 -46 51 -82 118 -60 114 -158 262
-177 268 -8 3 -7 -11 3 -49 8 -29 30 -131 50 -226 29 -144 33 -177 22 -190 -7
-9 -45 -47 -84 -86 -81 -81 -107 -137 -94 -202 13 -72 73 -249 87 -259 7 -5
21 -53 30 -105 11 -68 25 -112 51 -159 20 -35 45 -103 57 -150 l22 -86 18 35
c40 78 142 175 203 194 18 6 22 1 29 -41 4 -26 8 -272 8 -545 l0 -498 66 0 66
0 12 43 c7 23 35 101 61 173 51 136 143 432 186 592 32 124 104 445 104 468 0
53 -122 -120 -221 -312 -32 -62 -61 -109 -65 -105 -4 3 -4 0 0 -6 8 -15 -24
-74 -36 -67 -4 3 -5 -1 -2 -9 3 -8 -11 -54 -30 -103 l-35 -89 -1 115 c0 63 -2
180 -5 260 -3 82 -2 137 3 126 8 -18 9 -18 15 -2 4 10 7 30 7 44 0 21 2 24 10
12 7 -12 10 -8 10 15 0 22 3 26 10 15 21 -33 30 12 33 170 2 87 0 97 -20 116
-25 24 -29 40 -11 46 9 3 9 6 0 12 -7 4 -12 2 -12 -3 0 -24 -18 -9 -35 29 -10
22 -24 40 -32 40 -8 0 -13 12 -13 34 0 19 -7 65 -16 103 -8 37 -14 78 -11 90
2 12 1 20 -3 18 -5 -3 -10 13 -12 35 -2 22 1 42 7 44 7 3 7 7 0 13 -5 4 -11
44 -11 88 -3 131 -89 586 -153 810 -40 136 -94 280 -138 369 -25 50 -31 71
-23 76 37 23 306 60 437 60 103 0 287 -42 416 -96 76 -32 284 -141 320 -169
25 -18 62 -158 82 -307 24 -187 30 -560 12 -748 -14 -140 -19 -163 -52 -233
-20 -43 -35 -86 -33 -95 6 -30 30 -18 43 22 8 21 18 42 24 45 5 3 13 20 17 36
4 17 19 55 34 85 34 70 95 255 111 339 15 79 6 363 -15 473 -8 42 -31 115 -51
163 -20 48 -34 89 -32 91 7 7 182 -211 207 -258 13 -26 26 -45 28 -43 2 2 -1
12 -7 23 -12 23 -15 49 -4 39 3 -4 12 -2 20 4 10 9 13 8 13 -1 0 -8 3 -11 6
-7 3 3 0 15 -8 26 -8 12 -18 18 -21 14 -4 -3 -7 1 -7 10 0 9 -4 17 -10 17 -5
0 -10 7 -10 15 0 8 -4 15 -9 15 -4 0 -6 11 -3 25 6 35 -28 84 -143 203 -123
128 -233 206 -430 302 -136 67 -204 92 -395 150 -22 6 -15 10 50 30 41 13 161
44 265 71 105 26 218 60 253 74 143 59 472 125 628 125 35 0 64 4 64 10 0 9
-23 14 -114 24 -51 6 -643 -21 -658 -30 -64 -40 237 398 371 539 35 37 38 38
86 32 79 -10 356 -63 408 -79 26 -8 47 -12 47 -10 0 15 -272 111 -376 134 -27
6 -55 13 -62 15 -17 6 160 179 238 232 89 62 77 92 -21 54z m-486 -918 c-7 -2
-19 -2 -25 0 -7 3 -2 5 12 5 14 0 19 -2 13 -5z m-127 -23 c-49 -10 -94 -21
-102 -24 -8 -3 -11 0 -8 9 3 8 20 17 37 20 71 11 84 12 122 13 28 0 12 -5 -49
-18z m-162 -23 c-3 -8 -78 -32 -172 -56 -92 -24 -240 -68 -330 -97 -154 -51
-218 -66 -196 -45 13 12 262 103 371 135 83 25 290 73 320 75 7 1 10 -5 7 -12z
m-590 -367 c12 -4 -19 -10 -75 -14 -52 -3 -105 -9 -119 -11 -14 -3 -2 6 25 20
41 20 59 23 100 18 28 -3 59 -9 69 -13z m-67 -1277 c-3 -10 -5 -4 -5 12 0 17
2 24 5 18 2 -7 2 -21 0 -30z m10 -65 c-3 -7 -5 -2 -5 12 0 14 2 19 5 13 2 -7
2 -19 0 -25z m80 -540 c-3 -7 -5 -2 -5 12 0 14 2 19 5 13 2 -7 2 -19 0 -25z
m30 -5 c-3 -10 -5 -4 -5 12 0 17 2 24 5 18 2 -7 2 -21 0 -30z m20 -35 c-2 -13
-4 -5 -4 17 -1 22 1 32 4 23 2 -10 2 -28 0 -40z"/>
<path d="M6022 4670 c0 -14 2 -19 5 -12 2 6 2 18 0 25 -3 6 -5 1 -5 -13z"/>
<path d="M6032 4600 c0 -14 2 -19 5 -12 2 6 2 18 0 25 -3 6 -5 1 -5 -13z"/>
<path d="M6042 4540 c0 -14 2 -19 5 -12 2 6 2 18 0 25 -3 6 -5 1 -5 -13z"/>
<path d="M883 4465 c0 -22 2 -30 4 -17 2 12 2 30 0 40 -3 9 -5 -1 -4 -23z"/>
<path d="M6071 4384 c0 -11 3 -14 6 -6 3 7 2 16 -1 19 -3 4 -6 -2 -5 -13z"/>
<path d="M6082 4340 c0 -14 2 -19 5 -12 2 6 2 18 0 25 -3 6 -5 1 -5 -13z"/>
<path d="M3547 4313 c-16 -16 2 -18 161 -19 106 0 212 -7 290 -18 68 -10 125
-16 128 -13 6 6 -140 33 -256 47 -94 11 -313 14 -323 3z"/>
<path d="M6101 4234 c0 -11 3 -14 6 -6 3 7 2 16 -1 19 -3 4 -6 -2 -5 -13z"/>
<path d="M3144 4015 c-8 -19 -19 -70 -26 -112 -6 -43 -18 -86 -26 -96 -9 -10
-17 -37 -18 -61 -1 -23 -9 -54 -19 -69 -9 -14 -13 -32 -9 -38 4 -7 3 -9 -3 -6
-6 4 -28 -19 -49 -51 -58 -85 -59 -87 -31 -66 14 10 35 36 48 56 13 20 26 35
30 32 4 -2 13 11 20 29 7 17 23 46 35 62 16 23 24 55 32 140 6 61 18 134 25
163 16 60 12 67 -9 17z"/>
<path d="M4233 3443 c9 -2 25 -2 35 0 9 3 1 5 -18 5 -19 0 -27 -2 -17 -5z"/>
<path d="M4140 3423 c-25 -15 -25 -15 9 -9 18 3 37 6 42 6 5 0 9 5 9 10 0 14
-31 11 -60 -7z"/>
<path d="M2027 3278 c-9 -96 -27 -331 -35 -462 l-7 -128 -43 -3 c-24 -2 -49
-10 -55 -19 -7 -8 -48 -41 -92 -74 -44 -32 -114 -93 -155 -135 -46 -48 -83
-77 -96 -77 -58 0 -304 -219 -427 -381 -76 -101 -220 -353 -204 -357 26 -6 84
28 161 94 44 37 76 59 72 48 -5 -10 -11 -28 -13 -39 l-5 -20 16 20 c10 12 7
-3 -10 -40 -67 -156 -139 -341 -186 -482 -28 -84 -54 -150 -58 -146 -4 4 -23
55 -43 113 -36 107 -110 273 -151 339 -12 20 -43 90 -68 156 -26 66 -63 155
-82 198 -35 77 -43 107 -28 107 4 0 43 -75 87 -166 43 -92 81 -162 83 -156 4
12 -60 172 -120 302 l-45 95 5 282 c4 223 7 285 18 294 10 8 14 8 14 0 0 -6
-4 -11 -10 -11 -5 0 -10 -5 -10 -11 0 -5 5 -7 10 -4 6 3 10 2 10 -4 0 -5 -4
-13 -10 -16 -5 -3 -10 -11 -10 -16 0 -6 4 -8 9 -5 4 3 6 -5 4 -18 -6 -29 21
-137 47 -192 11 -22 20 -47 20 -55 0 -12 2 -12 10 1 8 13 10 12 10 -2 0 -10 5
-18 10 -18 6 0 23 -12 37 -27 17 -18 27 -24 30 -16 3 9 10 10 24 3 13 -8 25
-7 39 0 11 6 20 7 20 3 0 -23 27 26 38 70 26 100 26 104 3 117 -12 6 -19 15
-16 21 4 5 -1 9 -9 9 -16 0 -66 59 -66 77 0 6 -6 13 -14 16 -15 6 -88 109 -99
140 -6 17 -10 15 -38 -12 -32 -33 -64 -44 -36 -13 10 10 17 24 17 30 0 6 6 17
12 24 7 7 20 27 28 43 34 71 261 288 349 334 28 16 24 18 317 -209 60 -46 129
-102 154 -123 25 -21 54 -44 64 -49 17 -9 17 -8 -3 18 -37 49 -282 292 -353
352 -38 31 -68 60 -68 64 0 8 14 15 108 54 23 9 42 20 42 25 0 18 -216 -82
-296 -138 -109 -75 -297 -263 -361 -360 -24 -37 -58 -82 -74 -100 -16 -19 -29
-38 -29 -44 0 -6 -4 -7 -10 -4 -6 3 -10 -4 -11 -17 0 -13 -2 -31 -4 -40 -2
-10 2 -16 7 -15 7 1 10 -51 9 -153 -2 -85 -4 -156 -5 -158 -2 -1 -21 35 -43
80 l-40 83 29 60 30 60 -26 -27 c-14 -15 -26 -34 -26 -42 0 -8 -5 -18 -11 -22
-31 -18 -150 -333 -148 -390 0 -19 12 7 33 71 l32 100 23 -70 c12 -38 49 -130
82 -203 l61 -133 -12 -127 c-25 -286 -90 -590 -196 -921 -8 -25 -12 -46 -10
-48 6 -6 103 195 121 252 54 163 93 369 132 695 l8 65 33 -52 c21 -32 35 -69
39 -100 5 -42 1 -57 -25 -104 -105 -186 -166 -550 -167 -1004 0 -279 4 -317
30 -295 28 23 84 139 118 246 19 60 47 141 62 179 51 134 105 479 105 673 0
53 4 92 8 86 18 -19 152 -373 152 -399 0 -15 -9 -63 -21 -108 -60 -236 -72
-322 -76 -574 l-5 -243 46 0 46 0 0 173 c0 189 9 294 41 466 23 120 30 125 50
36 10 -45 8 -63 -15 -155 -33 -129 -43 -295 -27 -409 16 -107 18 -111 53 -111
23 0 28 4 24 18 -27 86 -34 248 -15 379 12 79 28 129 29 88 0 -12 9 -39 20
-60 30 -58 48 -122 79 -280 l28 -140 43 -3 43 -3 -6 45 c-4 25 -5 46 -3 46 2
0 16 -20 30 -45 l27 -45 100 0 100 0 -12 23 c-7 12 -34 57 -61 99 -51 82 -59
100 -31 73 16 -16 17 -16 29 0 10 13 10 20 1 30 -7 7 -15 11 -19 8 -5 -2 -8 1
-8 6 0 10 21 16 43 12 4 0 7 11 7 25 0 15 5 45 11 68 24 92 42 152 49 161 4 6
13 35 20 65 24 103 44 136 97 163 26 13 48 30 47 38 -1 10 8 15 24 14 21 0 34
-15 75 -82 28 -45 54 -80 57 -78 4 2 5 30 2 61 -5 55 -4 56 19 49 63 -20 110
-2 139 54 10 21 35 54 55 72 42 40 52 82 31 133 -18 43 -34 58 -130 124 -109
75 -128 84 -158 80 -15 -3 -28 -2 -28 1 0 3 -10 40 -21 81 -11 41 -33 138 -49
215 -37 175 -78 325 -124 455 -42 118 -45 159 -15 186 12 10 52 55 89 99 131
156 339 346 408 371 26 9 56 26 67 37 l20 20 -27 -16 c-15 -9 -32 -17 -38 -17
-14 0 -12 39 5 91 30 93 56 255 58 364 1 104 -18 245 -34 245 -4 0 -9 -24 -12
-52z m-1569 -1186 c-3 -15 -109 214 -108 233 0 6 25 -41 55 -104 31 -63 54
-121 53 -129z m935 -289 c10 -241 44 -450 106 -647 17 -55 17 -62 2 -110 -16
-51 -42 -85 -50 -64 -2 7 -6 6 -11 -1 -4 -8 -15 -9 -31 -3 -52 19 -107 23
-123 7 -8 -8 -18 -15 -23 -15 -15 0 -41 -76 -31 -94 6 -10 5 -16 -2 -16 -7 0
-10 -75 -8 -245 3 -242 3 -245 -17 -240 -11 3 -14 2 -7 -1 6 -3 12 -12 12 -21
0 -9 -21 3 -59 34 -48 39 -61 57 -71 93 -6 25 -22 70 -35 100 -13 30 -41 115
-61 189 l-38 134 16 61 c34 128 190 543 267 711 51 109 142 275 151 275 4 0
10 -66 13 -147z m362 -843 c9 -15 -5 -71 -16 -64 -12 7 -12 74 0 74 6 0 13 -5
16 -10z m-440 -730 c3 -5 1 -10 -4 -10 -6 0 -11 5 -11 10 0 6 2 10 4 10 3 0 8
-4 11 -10z"/>
<path d="M1100 1239 c0 -14 20 -51 36 -66 16 -17 54 -16 77 1 23 17 22 18 -15
46 -32 24 -98 36 -98 19z"/>
<path d="M2268 3304 c6 -11 20 -28 33 -39 l23 -20 -20 34 c-20 37 -55 60 -36
25z"/>
<path d="M1410 3254 c0 -3 33 -60 74 -127 40 -67 92 -160 116 -207 44 -89 121
-180 153 -180 10 0 34 -11 54 -24 l36 -25 -54 -4 -54 -3 63 -2 c34 -1 62 2 62
7 0 13 -53 50 -92 63 -57 20 -112 85 -172 206 l-57 113 27 21 c14 12 34 29 43
38 9 9 35 27 58 40 24 13 41 25 39 28 -3 2 -45 -17 -95 -44 -105 -55 -102 -55
-157 43 -33 58 -44 73 -44 57z"/>
<path d="M2340 3237 c0 -10 16 -17 50 -21 34 -5 54 -13 63 -26 15 -25 37 -26
37 -2 0 18 -10 22 -137 60 -7 2 -13 -3 -13 -11z"/>
<path d="M2460 3012 c0 -29 4 -52 10 -52 6 0 7 19 3 48 -8 64 -13 66 -13 4z"/>
<path d="M1678 2673 c12 -2 30 -2 40 0 9 3 -1 5 -23 4 -22 0 -30 -2 -17 -4z"/>
<path d="M1928 2505 c-28 -10 -38 -11 -38 -2 0 30 -60 -61 -122 -186 -27 -55
-16 -57 13 -2 13 25 27 45 30 45 3 0 3 -21 -1 -47 -7 -63 0 -165 10 -138 6 17
9 14 15 -17 8 -42 33 -58 52 -32 10 14 11 9 7 -32 -5 -39 -3 -53 10 -63 9 -7
16 -19 16 -26 0 -7 7 -16 16 -19 45 -17 112 7 134 49 7 13 16 23 19 20 4 -2 7
4 8 13 1 18 10 55 13 60 2 1 3 6 4 11 0 5 4 13 9 17 4 4 7 15 7 25 0 10 12 59
26 109 39 135 24 180 -59 180 -19 0 -55 11 -81 25 -26 14 -48 25 -49 24 -1 0
-19 -7 -39 -14z"/>
<path d="M2205 2423 c-12 -31 -45 -167 -44 -188 0 -34 29 43 46 123 14 71 13
103 -2 65z"/>
<path d="M2240 2260 c-7 -19 -13 -39 -14 -43 -1 -4 -7 -11 -14 -16 -19 -11
-11 -45 11 -49 13 -3 17 3 17 26 0 16 5 43 11 60 15 44 5 64 -11 22z"/>
<path d="M2147 2173 c-3 -5 -13 -46 -22 -92 -9 -47 -19 -91 -22 -98 -3 -7 -1
-13 5 -13 10 0 34 87 47 168 6 39 3 53 -8 35z"/>
<path d="M5642 2113 c-26 -60 -38 -123 -24 -123 6 0 13 15 17 33 3 17 13 54
22 80 20 64 11 70 -15 10z"/>
<path d="M2210 2130 c0 -5 4 -10 9 -10 6 0 13 5 16 10 3 6 -1 10 -9 10 -9 0
-16 -4 -16 -10z"/>
<path d="M5650 2009 c0 -5 5 -7 10 -4 6 3 10 8 10 11 0 2 -4 4 -10 4 -5 0 -10
-5 -10 -11z"/>
<path d="M2050 1805 c0 -2 18 -28 41 -57 47 -61 242 -451 260 -520 l13 -46
-65 -66 c-35 -36 -67 -66 -71 -66 -4 0 -21 20 -38 45 l-30 44 25 112 c14 62
24 114 22 116 -5 4 -57 -167 -57 -186 0 -8 -6 -11 -15 -7 -12 4 -15 -5 -15
-51 0 -31 -18 -140 -40 -243 -68 -323 -110 -628 -110 -812 0 -66 1 -68 25 -68
20 0 25 5 26 28 0 15 7 85 14 157 8 72 15 146 15 165 1 34 1 34 11 10 7 -16 8
-58 3 -120 -5 -52 -7 -115 -6 -138 1 -34 -2 -43 -13 -38 -9 3 -12 0 -8 -10 3
-7 9 -14 14 -14 17 0 9 -28 -8 -33 -10 -3 89 -5 221 -6 213 -1 237 1 226 14
-7 9 -10 18 -6 22 3 3 6 1 6 -5 0 -7 5 -12 11 -12 5 0 7 5 4 10 -10 16 5 12
32 -10 15 -11 41 -20 60 -20 l35 0 -7 53 c-4 28 -12 63 -17 77 -26 68 -36 130
-27 162 12 42 21 56 39 60 8 2 22 12 31 23 17 20 18 20 28 -10 25 -68 30 -71
26 -15 -3 30 -3 50 1 43 11 -23 119 39 110 63 -3 7 3 19 13 26 10 7 21 26 25
42 8 32 36 76 76 118 32 34 130 51 185 33 32 -12 35 -11 35 6 0 11 -4 19 -10
19 -5 0 -13 18 -16 40 -4 22 -10 40 -14 40 -4 0 -17 36 -31 80 -14 48 -26 75
-31 67 -4 -7 -5 2 -2 19 4 23 2 33 -10 37 -10 4 -16 19 -16 41 0 40 -22 110
-54 176 -13 25 -26 57 -30 73 -3 15 -17 38 -29 50 -22 22 -55 98 -64 149 l-5
28 -27 -21 c-56 -43 -102 -68 -166 -90 -61 -20 -147 -79 -197 -132 -20 -22
-16 -28 -113 158 -77 150 -155 270 -221 344 -40 45 -64 62 -64 46z m97 -1547
c-3 -7 -5 -2 -5 12 0 14 2 19 5 13 2 -7 2 -19 0 -25z m2 -95 c1 -13 -3 -23 -9
-23 -5 0 -10 -19 -10 -42 0 -23 -3 -39 -6 -35 -3 3 -3 41 2 84 5 54 9 72 15
58 4 -11 8 -30 8 -42z m-2 -135 c-3 -7 -5 -2 -5 12 0 14 2 19 5 13 2 -7 2 -19
0 -25z"/>
<path d="M4418 1399 c-132 -169 -223 -284 -229 -289 -3 -3 -38 -43 -78 -90
-40 -47 -83 -96 -95 -110 -68 -75 -87 -101 -84 -111 4 -12 170 178 271 310 33
42 62 78 65 81 20 15 191 235 216 278 20 35 -10 3 -66 -69z"/>
<path d="M3660 1234 c0 -14 4 -23 10 -19 6 3 10 15 10 26 0 10 -4 19 -10 19
-5 0 -10 -12 -10 -26z"/>
<path d="M5046 397 c3 -10 9 -15 12 -12 3 3 0 11 -7 18 -10 9 -11 8 -5 -6z"/>
<path d="M2052 270 c0 -19 2 -27 5 -17 2 9 2 25 0 35 -3 9 -5 1 -5 -18z"/>
<path d="M200 135 c-14 -17 -120 -22 -120 -5 0 6 -4 10 -9 10 -5 0 -3 -27 4
-59 12 -57 11 -60 -9 -67 -12 -5 47 -10 143 -11 90 -2 166 -1 170 2 3 4 -9 18
-26 33 -57 49 -68 60 -86 86 -20 29 -48 34 -67 11z"/>
<path d="M5093 105 c-3 -9 -3 -18 -1 -21 3 -3 8 4 11 16 6 23 -1 27 -10 5z"/>
<path d="M5055 79 c-4 -6 -5 -12 -2 -15 2 -3 7 2 10 11 7 17 1 20 -8 4z"/>
<path d="M2510 10 c0 -5 5 -10 11 -10 5 0 7 5 4 10 -3 6 -8 10 -11 10 -2 0 -4
-4 -4 -10z"/>
<path d="M5010 10 c0 -5 5 -10 11 -10 5 0 7 5 4 10 -3 6 -8 10 -11 10 -2 0 -4
-4 -4 -10z"/>
</g>
</svg>
